<svg version="1.1" viewBox="0.0 0.0 664.0 410.0" fill="none" stroke="none" stroke-linecap="square" stroke-miterlimit="10" width="664" height="410" xmlns:xlink="http://www.w3.org/1999/xlink" xmlns="http://www.w3.org/2000/svg"><path fill="#ffffff" d="M0 0L664.0 0L664.0 410.0L0 410.0L0 0Z" fill-rule="nonzero"/><path fill="#38761d" d="M332.0 87.166664C395.4223 87.166664 450.59576 130.59644 465.4917 192.24463L332.0 224.5Z" fill-rule="nonzero"/><path fill="#ffff00" d="M465.4917 192.24463C476.60815 238.25099 463.25113 286.7394 430.14395 320.56357L332.0 224.5Z" fill-rule="nonzero"/><path fill="#cc0000" d="M195.03726 214.41763C200.31844 142.67628 260.0645 87.166664 332.0 87.166664L332.0 224.5Z" fill-rule="nonzero"/><path fill="#fbbc04" d="M430.14395 320.56357C389.81308 361.76785 328.03912 373.393 275.48926 349.66782C222.93939 325.9426 190.80434 271.91943 195.03726 214.41763L332.0 224.5Z" fill-rule="nonzero"/><path fill="#000000" d="M253.3933 305.11346L253.3933 302.7072L249.03392 302.7072L249.03392 301.5822L253.61205 295.09784L254.61205 295.09784L254.61205 301.5822L255.97142 301.5822L255.97142 302.7072L254.61205 302.7072L254.61205 305.11346L253.3933 305.11346ZM253.3933 301.5822L253.3933 297.0666L250.25267 301.5822L253.3933 301.5822ZM261.3933 305.11346L261.3933 302.7072L257.03394 302.7072L257.03394 301.5822L261.61206 295.09784L262.61206 295.09784L262.61206 301.5822L263.97144 301.5822L263.97144 302.7072L262.61206 302.7072L262.61206 305.11346L261.3933 305.11346ZM261.3933 301.5822L261.3933 297.0666L258.2527 301.5822L261.3933 301.5822ZM266.11206 305.11346L266.11206 303.7072L267.5027 303.7072L267.5027 305.11346Q267.5027 305.8791 267.22144 306.34784Q266.9558 306.8322 266.36206 307.09784L266.0183 306.5666Q266.40894 306.3947 266.59644 306.0666Q266.78394 305.73846 266.79956 305.11346L266.11206 305.11346ZM269.4402 302.48846L270.73706 302.3791Q270.8777 303.3166 271.3933 303.80096Q271.92456 304.2697 272.65894 304.2697Q273.54956 304.2697 274.15894 303.59784Q274.78394 302.92596 274.78394 301.8322Q274.78394 300.7697 274.1902 300.16034Q273.59644 299.55096 272.6433 299.55096Q272.04956 299.55096 271.5652 299.8322Q271.09644 300.09784 270.8152 300.5197L269.65894 300.3791L270.6277 295.22284L275.61206 295.22284L275.61206 296.41034L271.61206 296.41034L271.0808 299.09784Q271.98706 298.47284 272.97144 298.47284Q274.28394 298.47284 275.17456 299.3791Q276.0808 300.28534 276.0808 301.72284Q276.0808 303.0822 275.29956 304.0666Q274.3308 305.28534 272.65894 305.28534Q271.29956 305.28534 270.42456 304.5197Q269.5652 303.7541 269.4402 302.48846ZM282.0808 305.11346L280.84644 305.11346L280.84644 297.2697Q280.40894 297.6916 279.67456 298.1291Q278.9558 298.55096 278.3933 298.7541L278.3933 297.5666Q279.42456 297.0822 280.1902 296.3947Q280.97144 295.7072 281.28394 295.05096L282.0808 295.05096L282.0808 305.11346ZM290.0808 305.11346L288.84644 305.11346L288.84644 297.2697Q288.40894 297.6916 287.67456 298.1291Q286.9558 298.55096 286.3933 298.7541L286.3933 297.5666Q287.42456 297.0822 288.1902 296.3947Q288.97144 295.7072 289.28394 295.05096L290.0808 295.05096L290.0808 305.11346ZM300.1433 308.0666Q299.11206 306.7697 298.40894 305.05096Q297.7058 303.3322 297.7058 301.48846Q297.7058 299.86346 298.23706 298.36346Q298.84644 296.6291 300.1433 294.92596L301.0183 294.92596Q300.1902 296.34784 299.92456 296.9572Q299.5027 297.8947 299.2683 298.92596Q298.97144 300.1916 298.97144 301.48846Q298.97144 304.78534 301.0183 308.0666L300.1433 308.0666ZM302.4558 302.47284L303.67456 302.30096Q303.8933 303.34784 304.3933 303.8166Q304.90894 304.2697 305.6433 304.2697Q306.5183 304.2697 307.11206 303.67596Q307.7058 303.0666 307.7058 302.17596Q307.7058 301.3322 307.1433 300.78534Q306.59644 300.23846 305.7527 300.23846Q305.3933 300.23846 304.8777 300.36346L305.0183 299.28534Q305.1433 299.30096 305.2058 299.30096Q306.0027 299.30096 306.6277 298.8947Q307.2527 298.48846 307.2527 297.6291Q307.2527 296.9572 306.79956 296.5197Q306.34644 296.0666 305.61206 296.0666Q304.8933 296.0666 304.40894 296.5197Q303.9402 296.9572 303.79956 297.86346L302.5808 297.6447Q302.79956 296.41034 303.59644 295.73846Q304.3933 295.05096 305.5808 295.05096Q306.40894 295.05096 307.09644 295.41034Q307.78394 295.7541 308.1433 296.36346Q308.5183 296.97284 308.5183 297.66034Q308.5183 298.30096 308.17456 298.8322Q307.8308 299.36346 307.1433 299.6916Q308.03394 299.8947 308.5183 300.53534Q309.0183 301.17596 309.0183 302.16034Q309.0183 303.47284 308.04956 304.3791Q307.09644 305.28534 305.6433 305.28534Q304.3152 305.28534 303.4402 304.5041Q302.5808 303.72284 302.4558 302.47284ZM312.3308 299.67596Q311.5652 299.3947 311.1902 298.8791Q310.8308 298.36346 310.8308 297.6291Q310.8308 296.53534 311.61206 295.80096Q312.40894 295.05096 313.7058 295.05096Q315.0183 295.05096 315.8152 295.8166Q316.6277 296.5822 316.6277 297.67596Q316.6277 298.36346 316.2527 298.8791Q315.8933 299.3947 315.1433 299.67596Q316.0652 299.97284 316.54956 300.6447Q317.03394 301.3166 317.03394 302.2541Q317.03394 303.53534 316.1277 304.41034Q315.22144 305.28534 313.73706 305.28534Q312.2527 305.28534 311.3308 304.41034Q310.42456 303.5197 310.42456 302.2072Q310.42456 301.23846 310.92456 300.5822Q311.42456 299.91034 312.3308 299.67596ZM312.09644 297.59784Q312.09644 298.30096 312.54956 298.7541Q313.0027 299.2072 313.73706 299.2072Q314.4558 299.2072 314.90894 298.7697Q315.36206 298.3166 315.36206 297.66034Q315.36206 296.98846 314.8933 296.53534Q314.42456 296.0666 313.72144 296.0666Q313.0183 296.0666 312.54956 296.5197Q312.09644 296.9572 312.09644 297.59784ZM311.6902 302.22284Q311.6902 302.7541 311.9402 303.2541Q312.1902 303.73846 312.67456 304.0041Q313.17456 304.2697 313.7527 304.2697Q314.6277 304.2697 315.1902 303.7072Q315.7683 303.1447 315.7683 302.2697Q315.7683 301.3791 315.17456 300.80096Q314.59644 300.2072 313.7058 300.2072Q312.8308 300.2072 312.2527 300.78534Q311.6902 301.36346 311.6902 302.22284ZM319.11206 305.11346L319.11206 303.7072L320.5027 303.7072L320.5027 305.11346Q320.5027 305.8791 320.22144 306.34784Q319.9558 306.8322 319.36206 307.09784L319.0183 306.5666Q319.40894 306.3947 319.59644 306.0666Q319.78394 305.73846 319.79956 305.11346L319.11206 305.11346ZM324.3308 299.67596Q323.5652 299.3947 323.1902 298.8791Q322.8308 298.36346 322.8308 297.6291Q322.8308 296.53534 323.61206 295.80096Q324.40894 295.05096 325.7058 295.05096Q327.0183 295.05096 327.8152 295.8166Q328.6277 296.5822 328.6277 297.67596Q328.6277 298.36346 328.2527 298.8791Q327.8933 299.3947 327.1433 299.67596Q328.0652 299.97284 328.54956 300.6447Q329.03394 301.3166 329.03394 302.2541Q329.03394 303.53534 328.1277 304.41034Q327.22144 305.28534 325.73706 305.28534Q324.2527 305.28534 323.3308 304.41034Q322.42456 303.5197 322.42456 302.2072Q322.42456 301.23846 322.92456 300.5822Q323.42456 299.91034 324.3308 299.67596ZM324.09644 297.59784Q324.09644 298.30096 324.54956 298.7541Q325.0027 299.2072 325.73706 299.2072Q326.4558 299.2072 326.90894 298.7697Q327.36206 298.3166 327.36206 297.66034Q327.36206 296.98846 326.8933 296.53534Q326.42456 296.0666 325.72144 296.0666Q325.0183 296.0666 324.54956 296.5197Q324.09644 296.9572 324.09644 297.59784ZM323.6902 302.22284Q323.6902 302.7541 323.9402 303.2541Q324.1902 303.73846 324.67456 304.0041Q325.17456 304.2697 325.7527 304.2697Q326.6277 304.2697 327.1902 303.7072Q327.7683 303.1447 327.7683 302.2697Q327.7683 301.3791 327.17456 300.80096Q326.59644 300.2072 325.7058 300.2072Q324.8308 300.2072 324.2527 300.78534Q323.6902 301.36346 323.6902 302.22284ZM330.67456 297.5041Q330.67456 296.42596 331.2058 295.67596Q331.7527 294.92596 332.78394 294.92596Q333.72144 294.92596 334.3308 295.59784Q334.9558 296.2697 334.9558 297.5666Q334.9558 298.84784 334.3308 299.53534Q333.7058 300.22284 332.79956 300.22284Q331.8933 300.22284 331.28394 299.55096Q330.67456 298.86346 330.67456 297.5041ZM332.8152 295.7697Q332.36206 295.7697 332.04956 296.17596Q331.7527 296.5666 331.7527 297.61346Q331.7527 298.5822 332.04956 298.97284Q332.36206 299.36346 332.8152 299.36346Q333.28394 299.36346 333.5808 298.97284Q333.8933 298.5822 333.8933 297.5197Q333.8933 296.55096 333.5808 296.16034Q333.2683 295.7697 332.8152 295.7697ZM332.8152 305.48846L338.29956 294.92596L339.29956 294.92596L333.84644 305.48846L332.8152 305.48846ZM337.15894 302.7541Q337.15894 301.67596 337.6902 300.9416Q338.23706 300.1916 339.2683 300.1916Q340.2058 300.1916 340.8308 300.86346Q341.4558 301.53534 341.4558 302.8322Q341.4558 304.11346 340.8308 304.80096Q340.2058 305.48846 339.2683 305.48846Q338.36206 305.48846 337.7527 304.8166Q337.15894 304.1291 337.15894 302.7541ZM339.29956 301.03534Q338.8308 301.03534 338.53394 301.4416Q338.23706 301.8322 338.23706 302.8791Q338.23706 303.84784 338.53394 304.23846Q338.84644 304.6291 339.29956 304.6291Q339.7683 304.6291 340.0652 304.23846Q340.3777 303.84784 340.3777 302.78534Q340.3777 301.8166 340.0652 301.42596Q339.7683 301.03534 339.29956 301.03534ZM343.59644 308.0666L342.7058 308.0666Q344.7527 304.78534 344.7527 301.48846Q344.7527 300.2072 344.4558 298.9416Q344.22144 297.91034 343.8152 296.97284Q343.54956 296.36346 342.7058 294.92596L343.59644 294.92596Q344.8777 296.6291 345.48706 298.36346Q346.0183 299.86346 346.0183 301.48846Q346.0183 303.3322 345.29956 305.05096Q344.59644 306.7697 343.59644 308.0666Z" fill-rule="nonzero"/><path fill="#000000" d="M238.91017 173.27306L238.91017 174.46056L232.28517 174.46056Q232.26955 174.02306 232.4258 173.60118Q232.69142 172.9293 233.2383 172.27306Q233.8008 171.6168 234.84767 170.75743Q236.4883 169.41368 237.0508 168.63243Q237.62892 167.85118 237.62892 167.14806Q237.62892 166.41368 237.09767 165.91368Q236.58205 165.41368 235.75392 165.41368Q234.8633 165.41368 234.31642 165.94493Q233.78517 166.47618 233.78517 167.4293L232.51955 167.28868Q232.64455 165.88243 233.4883 165.14806Q234.34767 164.39806 235.76955 164.39806Q237.22267 164.39806 238.0508 165.19493Q238.89455 165.9918 238.89455 167.1793Q238.89455 167.78868 238.64455 168.3668Q238.41017 168.94493 237.83205 169.58556Q237.26955 170.22618 235.94142 171.35118Q234.83205 172.27306 234.51955 172.6168Q234.20705 172.94493 234.00392 173.27306L238.91017 173.27306ZM240.51955 165.75743L240.51955 164.56993L247.01955 164.56993L247.01955 165.52306Q246.0508 166.53868 245.1133 168.22618Q244.1758 169.91368 243.66017 171.71056Q243.3008 172.96056 243.19142 174.46056L241.9258 174.46056Q241.94142 173.27306 242.37892 171.60118Q242.83205 169.9293 243.66017 168.38243Q244.50392 166.81993 245.44142 165.75743L240.51955 165.75743ZM249.1133 174.46056L249.1133 173.0543L250.50392 173.0543L250.50392 174.46056Q250.50392 175.22618 250.22267 175.69493Q249.95705 176.1793 249.3633 176.44493L249.01955 175.91368Q249.41017 175.7418 249.59767 175.41368Q249.78517 175.08556 249.8008 174.46056L249.1133 174.46056ZM252.45705 171.81993L253.6758 171.64806Q253.89455 172.69493 254.39455 173.16368Q254.91017 173.6168 255.64455 173.6168Q256.51953 173.6168 257.11328 173.02306Q257.70703 172.41368 257.70703 171.52306Q257.70703 170.6793 257.14453 170.13243Q256.59766 169.58556 255.75392 169.58556Q255.39455 169.58556 254.87892 169.71056L255.01955 168.63243Q255.14455 168.64806 255.20705 168.64806Q256.0039 168.64806 256.6289 168.2418Q257.2539 167.83556 257.2539 166.97618Q257.2539 166.3043 256.80078 165.8668Q256.34766 165.41368 255.6133 165.41368Q254.89455 165.41368 254.41017 165.8668Q253.94142 166.3043 253.8008 167.21056L252.58205 166.9918Q252.8008 165.75743 253.59767 165.08556Q254.39455 164.39806 255.58205 164.39806Q256.41016 164.39806 257.09766 164.75743Q257.78516 165.10118 258.14453 165.71056Q258.51953 166.31993 258.51953 167.00743Q258.51953 167.64806 258.17578 168.1793Q257.83203 168.71056 257.14453 169.03868Q258.03516 169.2418 258.51953 169.88243Q259.01953 170.52306 259.01953 171.50743Q259.01953 172.81993 258.05078 173.72618Q257.09766 174.63243 255.64455 174.63243Q254.31642 174.63243 253.44142 173.85118Q252.58205 173.06993 252.45705 171.81993ZM265.08203 174.46056L263.84766 174.46056L263.84766 166.6168Q263.41016 167.03868 262.67578 167.47618Q261.95703 167.89806 261.39453 168.10118L261.39453 166.91368Q262.42578 166.4293 263.1914 165.7418Q263.97266 165.0543 264.28516 164.39806L265.08203 164.39806L265.08203 174.46056ZM268.4414 169.52306Q268.4414 167.7418 268.80078 166.66368Q269.17578 165.56993 269.89453 164.9918Q270.61328 164.39806 271.70703 164.39806Q272.51953 164.39806 273.1289 164.72618Q273.73828 165.0543 274.1289 165.66368Q274.53516 166.27306 274.7539 167.14806Q274.97266 168.02306 274.97266 169.52306Q274.97266 171.28868 274.61328 172.3668Q274.2539 173.44493 273.53516 174.03868Q272.8164 174.63243 271.70703 174.63243Q270.26953 174.63243 269.4414 173.58556Q268.4414 172.33556 268.4414 169.52306ZM269.70703 169.52306Q269.70703 171.9918 270.28516 172.8043Q270.86328 173.6168 271.70703 173.6168Q272.5664 173.6168 273.14453 172.8043Q273.72266 171.97618 273.72266 169.52306Q273.72266 167.03868 273.14453 166.22618Q272.5664 165.41368 271.6914 165.41368Q270.84766 165.41368 270.34766 166.13243Q269.70703 167.0543 269.70703 169.52306ZM283.14453 177.41368Q282.11328 176.1168 281.41016 174.39806Q280.70703 172.6793 280.70703 170.83556Q280.70703 169.21056 281.23828 167.71056Q281.84766 165.97618 283.14453 164.27306L284.01953 164.27306Q283.1914 165.69493 282.92578 166.3043Q282.5039 167.2418 282.26953 168.27306Q281.97266 169.53868 281.97266 170.83556Q281.97266 174.13243 284.01953 177.41368L283.14453 177.41368ZM291.91016 173.27306L291.91016 174.46056L285.28516 174.46056Q285.26953 174.02306 285.42578 173.60118Q285.6914 172.9293 286.23828 172.27306Q286.80078 171.6168 287.84766 170.75743Q289.48828 169.41368 290.05078 168.63243Q290.6289 167.85118 290.6289 167.14806Q290.6289 166.41368 290.09766 165.91368Q289.58203 165.41368 288.7539 165.41368Q287.86328 165.41368 287.3164 165.94493Q286.78516 166.47618 286.78516 167.4293L285.51953 167.28868Q285.64453 165.88243 286.48828 165.14806Q287.34766 164.39806 288.76953 164.39806Q290.22266 164.39806 291.05078 165.19493Q291.89453 165.9918 291.89453 167.1793Q291.89453 167.78868 291.64453 168.3668Q291.41016 168.94493 290.83203 169.58556Q290.26953 170.22618 288.9414 171.35118Q287.83203 172.27306 287.51953 172.6168Q287.20703 172.94493 287.0039 173.27306L291.91016 173.27306ZM293.45703 171.81993L294.67578 171.64806Q294.89453 172.69493 295.39453 173.16368Q295.91016 173.6168 296.64453 173.6168Q297.51953 173.6168 298.11328 173.02306Q298.70703 172.41368 298.70703 171.52306Q298.70703 170.6793 298.14453 170.13243Q297.59766 169.58556 296.7539 169.58556Q296.39453 169.58556 295.8789 169.71056L296.01953 168.63243Q296.14453 168.64806 296.20703 168.64806Q297.0039 168.64806 297.6289 168.2418Q298.2539 167.83556 298.2539 166.97618Q298.2539 166.3043 297.80078 165.8668Q297.34766 165.41368 296.61328 165.41368Q295.89453 165.41368 295.41016 165.8668Q294.9414 166.3043 294.80078 167.21056L293.58203 166.9918Q293.80078 165.75743 294.59766 165.08556Q295.39453 164.39806 296.58203 164.39806Q297.41016 164.39806 298.09766 164.75743Q298.78516 165.10118 299.14453 165.71056Q299.51953 166.31993 299.51953 167.00743Q299.51953 167.64806 299.17578 168.1793Q298.83203 168.71056 298.14453 169.03868Q299.03516 169.2418 299.51953 169.88243Q300.01953 170.52306 300.01953 171.50743Q300.01953 172.81993 299.05078 173.72618Q298.09766 174.63243 296.64453 174.63243Q295.3164 174.63243 294.4414 173.85118Q293.58203 173.06993 293.45703 171.81993ZM302.11328 174.46056L302.11328 173.0543L303.5039 173.0543L303.5039 174.46056Q303.5039 175.22618 303.22266 175.69493Q302.95703 176.1793 302.36328 176.44493L302.01953 175.91368Q302.41016 175.7418 302.59766 175.41368Q302.78516 175.08556 302.80078 174.46056L302.11328 174.46056ZM307.33203 169.02306Q306.5664 168.7418 306.1914 168.22618Q305.83203 167.71056 305.83203 166.97618Q305.83203 165.88243 306.61328 165.14806Q307.41016 164.39806 308.70703 164.39806Q310.01953 164.39806 310.8164 165.16368Q311.6289 165.9293 311.6289 167.02306Q311.6289 167.71056 311.2539 168.22618Q310.89453 168.7418 310.14453 169.02306Q311.0664 169.31993 311.55078 169.9918Q312.03516 170.66368 312.03516 171.60118Q312.03516 172.88243 311.1289 173.75743Q310.22266 174.63243 308.73828 174.63243Q307.2539 174.63243 306.33203 173.75743Q305.42578 172.8668 305.42578 171.5543Q305.42578 170.58556 305.92578 169.9293Q306.42578 169.25743 307.33203 169.02306ZM307.09766 166.94493Q307.09766 167.64806 307.55078 168.10118Q308.0039 168.5543 308.73828 168.5543Q309.45703 168.5543 309.91016 168.1168Q310.36328 167.66368 310.36328 167.00743Q310.36328 166.33556 309.89453 165.88243Q309.42578 165.41368 308.72266 165.41368Q308.01953 165.41368 307.55078 165.8668Q307.09766 166.3043 307.09766 166.94493ZM306.6914 171.56993Q306.6914 172.10118 306.9414 172.60118Q307.1914 173.08556 307.67578 173.35118Q308.17578 173.6168 308.7539 173.6168Q309.6289 173.6168 310.1914 173.0543Q310.76953 172.4918 310.76953 171.6168Q310.76953 170.72618 310.17578 170.14806Q309.59766 169.5543 308.70703 169.5543Q307.83203 169.5543 307.2539 170.13243Q306.6914 170.71056 306.6914 171.56993ZM313.67578 166.85118Q313.67578 165.77306 314.20703 165.02306Q314.7539 164.27306 315.78516 164.27306Q316.72266 164.27306 317.33203 164.94493Q317.95703 165.6168 317.95703 166.91368Q317.95703 168.19493 317.33203 168.88243Q316.70703 169.56993 315.80078 169.56993Q314.89453 169.56993 314.28516 168.89806Q313.67578 168.21056 313.67578 166.85118ZM315.8164 165.1168Q315.36328 165.1168 315.05078 165.52306Q314.7539 165.91368 314.7539 166.96056Q314.7539 167.9293 315.05078 168.31993Q315.36328 168.71056 315.8164 168.71056Q316.28516 168.71056 316.58203 168.31993Q316.89453 167.9293 316.89453 166.8668Q316.89453 165.89806 316.58203 165.50743Q316.26953 165.1168 315.8164 165.1168ZM315.8164 174.83556L321.30078 164.27306L322.30078 164.27306L316.84766 174.83556L315.8164 174.83556ZM320.16016 172.10118Q320.16016 171.02306 320.6914 170.28868Q321.23828 169.53868 322.26953 169.53868Q323.20703 169.53868 323.83203 170.21056Q324.45703 170.88243 324.45703 172.1793Q324.45703 173.46056 323.83203 174.14806Q323.20703 174.83556 322.26953 174.83556Q321.36328 174.83556 320.7539 174.16368Q320.16016 173.47618 320.16016 172.10118ZM322.30078 170.38243Q321.83203 170.38243 321.53516 170.78868Q321.23828 171.1793 321.23828 172.22618Q321.23828 173.19493 321.53516 173.58556Q321.84766 173.97618 322.30078 173.97618Q322.76953 173.97618 323.0664 173.58556Q323.3789 173.19493 323.3789 172.13243Q323.3789 171.16368 323.0664 170.77306Q322.76953 170.38243 322.30078 170.38243ZM326.59766 177.41368L325.70703 177.41368Q327.7539 174.13243 327.7539 170.83556Q327.7539 169.5543 327.45703 168.28868Q327.22266 167.25743 326.8164 166.31993Q326.55078 165.71056 325.70703 164.27306L326.59766 164.27306Q327.8789 165.97618 328.48828 167.71056Q329.01953 169.21056 329.01953 170.83556Q329.01953 172.6793 328.30078 174.39806Q327.59766 176.1168 326.59766 177.41368Z" fill-rule="nonzero"/><path fill="#38761d" d="M204.0 382.5C204.0 385.81372 201.3137 388.5 198.0 388.5C194.6863 388.5 192.0 385.81372 192.0 382.5C192.0 379.18628 194.6863 376.5 198.0 376.5C201.3137 376.5 204.0 379.18628 204.0 382.5Z" fill-rule="nonzero"/><path fill="#1a1a1a" d="M212.79688 380.28125L217.70312 380.28125L217.70312 386.5L216.65625 386.5L216.65625 381.15625L213.85938 381.15625L213.85938 386.5L212.79688 386.5L212.79688 380.28125ZM219.40625 383.39062Q219.40625 381.65625 220.35938 380.82812Q221.15625 380.14062 222.3125 380.14062Q223.59375 380.14062 224.40625 380.98438Q225.23438 381.8125 225.23438 383.29688Q225.23438 384.5 224.875 385.1875Q224.51562 385.875 223.8125 386.26562Q223.125 386.64062 222.3125 386.64062Q221.01562 386.64062 220.20312 385.8125Q219.40625 384.96875 219.40625 383.39062ZM220.48438 383.39062Q220.48438 384.57812 221.0 385.17188Q221.53125 385.76562 222.3125 385.76562Q223.10938 385.76562 223.625 385.17188Q224.14062 384.57812 224.14062 383.35938Q224.14062 382.20312 223.60938 381.60938Q223.09375 381.01562 222.3125 381.01562Q221.53125 381.01562 221.0 381.60938Q220.48438 382.1875 220.48438 383.39062ZM227.625 380.28125L231.95312 380.28125L231.95312 385.625L232.64062 385.625L232.64062 388.26562L231.76562 388.26562L231.76562 386.5L226.875 386.5L226.875 388.26562L226.0 388.26562L226.0 385.625L226.5625 385.625Q227.67188 384.125 227.625 380.28125ZM228.5 381.15625Q228.39062 384.17188 227.5625 385.625L230.90625 385.625L230.90625 381.15625L228.5 381.15625ZM240.46875 386.5L239.42188 386.5L239.42188 379.78125Q239.03125 380.14062 238.40625 380.51562Q237.79688 380.875 237.3125 381.04688L237.3125 380.03125Q238.1875 379.60938 238.84375 379.03125Q239.51562 378.4375 239.79688 377.875L240.46875 377.875L240.46875 386.5ZM243.5 384.25L244.60938 384.15625Q244.73438 384.96875 245.17188 385.375Q245.625 385.78125 246.26562 385.78125Q247.01562 385.78125 247.54688 385.20312Q248.07812 384.625 248.07812 383.6875Q248.07812 382.78125 247.5625 382.26562Q247.0625 381.73438 246.23438 381.73438Q245.73438 381.73438 245.3125 381.96875Q244.90625 382.20312 244.67188 382.5625L243.6875 382.4375L244.51562 378.03125L248.79688 378.03125L248.79688 379.03125L245.35938 379.03125L244.90625 381.34375Q245.67188 380.79688 246.51562 380.79688Q247.64062 380.79688 248.40625 381.57812Q249.1875 382.35938 249.1875 383.59375Q249.1875 384.75 248.51562 385.60938Q247.6875 386.64062 246.26562 386.64062Q245.09375 386.64062 244.34375 385.98438Q243.60938 385.32812 243.5 384.25Z" fill-rule="nonzero"/><path fill="#ffff00" d="M278.0 382.5C278.0 385.81372 275.31372 388.5 272.0 388.5C268.68628 388.5 266.0 385.81372 266.0 382.5C266.0 379.18628 268.68628 376.5 272.0 376.5C275.31372 376.5 278.0 379.18628 278.0 382.5Z" fill-rule="nonzero"/><path fill="#1a1a1a" d="M286.79688 380.28125L291.70312 380.28125L291.70312 386.5L290.65625 386.5L290.65625 381.15625L287.85938 381.15625L287.85938 386.5L286.79688 386.5L286.79688 380.28125ZM293.40625 383.39062Q293.40625 381.65625 294.35938 380.82812Q295.15625 380.14062 296.3125 380.14062Q297.59375 380.14062 298.40625 380.98438Q299.23438 381.8125 299.23438 383.29688Q299.23438 384.5 298.875 385.1875Q298.51562 385.875 297.8125 386.26562Q297.125 386.64062 296.3125 386.64062Q295.01562 386.64062 294.20312 385.8125Q293.40625 384.96875 293.40625 383.39062ZM294.48438 383.39062Q294.48438 384.57812 295.0 385.17188Q295.53125 385.76562 296.3125 385.76562Q297.10938 385.76562 297.625 385.17188Q298.14062 384.57812 298.14062 383.35938Q298.14062 382.20312 297.60938 381.60938Q297.09375 381.01562 296.3125 381.01562Q295.53125 381.01562 295.0 381.60938Q294.48438 382.1875 294.48438 383.39062ZM301.625 380.28125L305.95312 380.28125L305.95312 385.625L306.64062 385.625L306.64062 388.26562L305.76562 388.26562L305.76562 386.5L300.875 386.5L300.875 388.26562L300.0 388.26562L300.0 385.625L300.5625 385.625Q301.67188 384.125 301.625 380.28125ZM302.5 381.15625Q302.39062 384.17188 301.5625 385.625L304.90625 385.625L304.90625 381.15625L302.5 381.15625ZM310.5 384.23438L311.5625 384.09375Q311.73438 384.98438 312.17188 385.39062Q312.60938 385.78125 313.23438 385.78125Q313.98438 385.78125 314.5 385.26562Q315.01562 384.75 315.01562 383.98438Q315.01562 383.26562 314.53125 382.79688Q314.0625 382.3125 313.32812 382.3125Q313.03125 382.3125 312.57812 382.4375L312.70312 381.5Q312.8125 381.51562 312.875 381.51562Q313.54688 381.51562 314.07812 381.17188Q314.625 380.8125 314.625 380.07812Q314.625 379.5 314.23438 379.125Q313.84375 378.73438 313.21875 378.73438Q312.60938 378.73438 312.1875 379.125Q311.78125 379.51562 311.67188 380.28125L310.60938 380.09375Q310.79688 379.04688 311.48438 378.46875Q312.17188 377.875 313.1875 377.875Q313.89062 377.875 314.48438 378.1875Q315.07812 378.48438 315.39062 379.0Q315.70312 379.51562 315.70312 380.10938Q315.70312 380.65625 315.40625 381.125Q315.10938 381.57812 314.53125 381.84375Q315.28125 382.01562 315.70312 382.57812Q316.125 383.125 316.125 383.96875Q316.125 385.09375 315.29688 385.875Q314.48438 386.65625 313.23438 386.65625Q312.10938 386.65625 311.35938 385.98438Q310.60938 385.29688 310.5 384.23438ZM317.5 382.26562Q317.5 380.73438 317.8125 379.8125Q318.125 378.875 318.73438 378.375Q319.35938 377.875 320.29688 377.875Q320.98438 377.875 321.5 378.15625Q322.03125 378.4375 322.375 378.96875Q322.71875 379.48438 322.90625 380.23438Q323.09375 380.98438 323.09375 382.26562Q323.09375 383.78125 322.78125 384.70312Q322.48438 385.625 321.85938 386.14062Q321.25 386.64062 320.29688 386.64062Q319.0625 386.64062 318.34375 385.75Q317.5 384.6875 317.5 382.26562ZM318.57812 382.26562Q318.57812 384.375 319.07812 385.07812Q319.57812 385.78125 320.29688 385.78125Q321.03125 385.78125 321.51562 385.07812Q322.01562 384.375 322.01562 382.26562Q322.01562 380.14062 321.51562 379.45312Q321.03125 378.75 320.28125 378.75Q319.5625 378.75 319.125 379.35938Q318.57812 380.14062 318.57812 382.26562Z" fill-rule="nonzero"/><path fill="#fbbc04" d="M352.0 382.5C352.0 385.81372 349.31372 388.5 346.0 388.5C342.68628 388.5 340.0 385.81372 340.0 382.5C340.0 379.18628 342.68628 376.5 346.0 376.5C349.31372 376.5 352.0 379.18628 352.0 382.5Z" fill-rule="nonzero"/><path fill="#1a1a1a" d="M360.79688 380.28125L365.70312 380.28125L365.70312 386.5L364.65625 386.5L364.65625 381.15625L361.85938 381.15625L361.85938 386.5L360.79688 386.5L360.79688 380.28125ZM367.40625 383.39062Q367.40625 381.65625 368.35938 380.82812Q369.15625 380.14062 370.3125 380.14062Q371.59375 380.14062 372.40625 380.98438Q373.23438 381.8125 373.23438 383.29688Q373.23438 384.5 372.875 385.1875Q372.51562 385.875 371.8125 386.26562Q371.125 386.64062 370.3125 386.64062Q369.01562 386.64062 368.20312 385.8125Q367.40625 384.96875 367.40625 383.39062ZM368.48438 383.39062Q368.48438 384.57812 369.0 385.17188Q369.53125 385.76562 370.3125 385.76562Q371.10938 385.76562 371.625 385.17188Q372.14062 384.57812 372.14062 383.35938Q372.14062 382.20312 371.60938 381.60938Q371.09375 381.01562 370.3125 381.01562Q369.53125 381.01562 369.0 381.60938Q368.48438 382.1875 368.48438 383.39062ZM375.625 380.28125L379.95312 380.28125L379.95312 385.625L380.64062 385.625L380.64062 388.26562L379.76562 388.26562L379.76562 386.5L374.875 386.5L374.875 388.26562L374.0 388.26562L374.0 385.625L374.5625 385.625Q375.67188 384.125 375.625 380.28125ZM376.5 381.15625Q376.39062 384.17188 375.5625 385.625L378.90625 385.625L378.90625 381.15625L376.5 381.15625ZM389.96875 380.01562L388.92188 380.09375Q388.78125 379.46875 388.53125 379.1875Q388.09375 378.73438 387.46875 378.73438Q386.96875 378.73438 386.57812 379.01562Q386.09375 379.39062 385.79688 380.09375Q385.51562 380.78125 385.5 382.0625Q385.875 381.48438 386.42188 381.20312Q386.98438 380.92188 387.59375 380.92188Q388.64062 380.92188 389.375 381.70312Q390.125 382.48438 390.125 383.70312Q390.125 384.51562 389.76562 385.21875Q389.42188 385.90625 388.8125 386.28125Q388.20312 386.64062 387.4375 386.64062Q386.10938 386.64062 385.28125 385.67188Q384.45312 384.70312 384.45312 382.48438Q384.45312 379.98438 385.375 378.85938Q386.17188 377.875 387.53125 377.875Q388.54688 377.875 389.1875 378.45312Q389.84375 379.01562 389.96875 380.01562ZM385.67188 383.71875Q385.67188 384.26562 385.89062 384.76562Q386.125 385.25 386.53125 385.51562Q386.95312 385.78125 387.42188 385.78125Q388.07812 385.78125 388.5625 385.25Q389.04688 384.70312 389.04688 383.78125Q389.04688 382.89062 388.5625 382.375Q388.09375 381.85938 387.375 381.85938Q386.65625 381.85938 386.15625 382.375Q385.67188 382.89062 385.67188 383.71875ZM391.5 382.26562Q391.5 380.73438 391.8125 379.8125Q392.125 378.875 392.73438 378.375Q393.35938 377.875 394.29688 377.875Q394.98438 377.875 395.5 378.15625Q396.03125 378.4375 396.375 378.96875Q396.71875 379.48438 396.90625 380.23438Q397.09375 380.98438 397.09375 382.26562Q397.09375 383.78125 396.78125 384.70312Q396.48438 385.625 395.85938 386.14062Q395.25 386.64062 394.29688 386.64062Q393.0625 386.64062 392.34375 385.75Q391.5 384.6875 391.5 382.26562ZM392.57812 382.26562Q392.57812 384.375 393.07812 385.07812Q393.57812 385.78125 394.29688 385.78125Q395.03125 385.78125 395.51562 385.07812Q396.01562 384.375 396.01562 382.26562Q396.01562 380.14062 395.51562 379.45312Q395.03125 378.75 394.28125 378.75Q393.5625 378.75 393.125 379.35938Q392.57812 380.14062 392.57812 382.26562Z" fill-rule="nonzero"/><path fill="#cc0000" d="M426.0 382.5C426.0 385.81372 423.31372 388.5 420.0 388.5C416.68628 388.5 414.0 385.81372 414.0 382.5C414.0 379.18628 416.68628 376.5 420.0 376.5C423.31372 376.5 426.0 379.18628 426.0 382.5Z" fill-rule="nonzero"/><path fill="#1a1a1a" d="M434.79688 380.28125L435.85938 380.28125L435.85938 382.85938L438.78125 382.85938L438.78125 380.28125L439.82812 380.28125L439.82812 386.5L438.78125 386.5L438.78125 383.73438L435.85938 383.73438L435.85938 386.5L434.79688 386.5L434.79688 380.28125ZM445.85938 385.73438Q445.26562 386.23438 444.71875 386.4375Q444.1875 386.64062 443.5625 386.64062Q442.53125 386.64062 441.98438 386.14062Q441.4375 385.64062 441.4375 384.85938Q441.4375 384.40625 441.64062 384.03125Q441.84375 383.64062 442.1875 383.42188Q442.53125 383.1875 442.95312 383.07812Q443.25 382.98438 443.89062 382.90625Q445.15625 382.76562 445.76562 382.54688Q445.76562 382.32812 445.76562 382.28125Q445.76562 381.625 445.46875 381.35938Q445.0625 381.01562 444.26562 381.01562Q443.53125 381.01562 443.17188 381.28125Q442.8125 381.53125 442.64062 382.1875L441.60938 382.04688Q441.75 381.39062 442.07812 380.98438Q442.40625 380.57812 443.01562 380.35938Q443.625 380.14062 444.42188 380.14062Q445.21875 380.14062 445.71875 380.32812Q446.21875 380.51562 446.45312 380.79688Q446.6875 381.07812 446.78125 381.51562Q446.82812 381.78125 446.82812 382.48438L446.82812 383.89062Q446.82812 385.35938 446.89062 385.75Q446.96875 386.14062 447.17188 386.5L446.0625 386.5Q445.90625 386.17188 445.85938 385.73438ZM445.76562 383.375Q445.1875 383.60938 444.04688 383.78125Q443.39062 383.875 443.125 384.0Q442.85938 384.10938 442.70312 384.32812Q442.5625 384.54688 442.5625 384.82812Q442.5625 385.25 442.875 385.53125Q443.20312 385.8125 443.8125 385.8125Q444.42188 385.8125 444.89062 385.54688Q445.375 385.28125 445.59375 384.8125Q445.76562 384.45312 445.76562 383.76562L445.76562 383.375ZM449.625 380.28125L453.95312 380.28125L453.95312 385.625L454.64062 385.625L454.64062 388.26562L453.76562 388.26562L453.76562 386.5L448.875 386.5L448.875 388.26562L448.0 388.26562L448.0 385.625L448.5625 385.625Q449.67188 384.125 449.625 380.28125ZM450.5 381.15625Q450.39062 384.17188 449.5625 385.625L452.90625 385.625L452.90625 381.15625L450.5 381.15625ZM463.96875 380.01562L462.92188 380.09375Q462.78125 379.46875 462.53125 379.1875Q462.09375 378.73438 461.46875 378.73438Q460.96875 378.73438 460.57812 379.01562Q460.09375 379.39062 459.79688 380.09375Q459.51562 380.78125 459.5 382.0625Q459.875 381.48438 460.42188 381.20312Q460.98438 380.92188 461.59375 380.92188Q462.64062 380.92188 463.375 381.70312Q464.125 382.48438 464.125 383.70312Q464.125 384.51562 463.76562 385.21875Q463.42188 385.90625 462.8125 386.28125Q462.20312 386.64062 461.4375 386.64062Q460.10938 386.64062 459.28125 385.67188Q458.45312 384.70312 458.45312 382.48438Q458.45312 379.98438 459.375 378.85938Q460.17188 377.875 461.53125 377.875Q462.54688 377.875 463.1875 378.45312Q463.84375 379.01562 463.96875 380.01562ZM459.67188 383.71875Q459.67188 384.26562 459.89062 384.76562Q460.125 385.25 460.53125 385.51562Q460.95312 385.78125 461.42188 385.78125Q462.07812 385.78125 462.5625 385.25Q463.04688 384.70312 463.04688 383.78125Q463.04688 382.89062 462.5625 382.375Q462.09375 381.85938 461.375 381.85938Q460.65625 381.85938 460.15625 382.375Q459.67188 382.89062 459.67188 383.71875ZM465.5 382.26562Q465.5 380.73438 465.8125 379.8125Q466.125 378.875 466.73438 378.375Q467.35938 377.875 468.29688 377.875Q468.98438 377.875 469.5 378.15625Q470.03125 378.4375 470.375 378.96875Q470.71875 379.48438 470.90625 380.23438Q471.09375 380.98438 471.09375 382.26562Q471.09375 383.78125 470.78125 384.70312Q470.48438 385.625 469.85938 386.14062Q469.25 386.64062 468.29688 386.64062Q467.0625 386.64062 466.34375 385.75Q465.5 384.6875 465.5 382.26562ZM466.57812 382.26562Q466.57812 384.375 467.07812 385.07812Q467.57812 385.78125 468.29688 385.78125Q469.03125 385.78125 469.51562 385.07812Q470.01562 384.375 470.01562 382.26562Q470.01562 380.14062 469.51562 379.45312Q469.03125 378.75 468.28125 378.75Q467.5625 378.75 467.125 379.35938Q466.57812 380.14062 466.57812 382.26562Z" fill-rule="nonzero"/><path fill="#999999" d="M509.78125 73.453125Q508.75 72.15625 508.04688 70.4375Q507.34375 68.71875 507.34375 66.875Q507.34375 65.25 507.875 63.75Q508.48438 62.015625 509.78125 60.3125L510.65625 60.3125Q509.82812 61.734375 509.5625 62.34375Q509.14062 63.28125 508.90625 64.3125Q508.60938 65.578125 508.60938 66.875Q508.60938 70.171875 510.65625 73.453125L509.78125 73.453125ZM512.4219 63.234375L513.65625 63.234375L513.65625 68.78125L517.0625 63.234375L518.3906 63.234375L518.3906 70.5L517.15625 70.5L517.15625 65.0L513.75 70.5L512.4219 70.5L512.4219 63.234375ZM522.03125 67.21875L522.03125 66.25Q522.8125 66.25 523.09375 66.203125Q523.375 66.140625 523.625 65.875Q523.875 65.59375 523.875 65.1875Q523.875 64.6875 523.5469 64.390625Q523.21875 64.09375 522.6875 64.09375Q521.65625 64.09375 521.2344 65.3125L520.0625 65.125Q520.6094 63.078125 522.7031 63.078125Q523.875 63.078125 524.53125 63.71875Q525.1875 64.34375 525.1875 65.234375Q525.1875 66.125 524.3281 66.640625Q524.875 66.9375 525.1406 67.390625Q525.4219 67.84375 525.4219 68.46875Q525.4219 69.453125 524.7031 70.0625Q524.0 70.671875 522.71875 70.671875Q520.2344 70.671875 519.84375 68.453125L521.0 68.203125Q521.15625 68.90625 521.6406 69.296875Q522.125 69.671875 522.7344 69.671875Q523.3594 69.671875 523.7656 69.328125Q524.1875 68.96875 524.1875 68.421875Q524.1875 68.0 523.9219 67.6875Q523.6719 67.375 523.375 67.296875Q523.0781 67.21875 522.3125 67.21875Q522.25 67.21875 522.03125 67.21875ZM526.4531 63.234375L528.375 63.234375L530.28125 69.046875L532.3906 63.234375L534.1719 63.234375L534.1719 70.5L532.9375 70.5L532.9375 64.65625L530.7969 70.5L529.6875 70.5L527.65625 64.375L527.65625 70.5L526.4531 70.5L526.4531 63.234375ZM541.3906 68.15625L542.6719 68.3125Q542.3594 69.4375 541.5469 70.0625Q540.7344 70.671875 539.46875 70.671875Q537.875 70.671875 536.9375 69.6875Q536.0156 68.703125 536.0156 66.9375Q536.0156 65.09375 536.9531 64.09375Q537.90625 63.078125 539.40625 63.078125Q540.8594 63.078125 541.78125 64.078125Q542.7031 65.0625 542.7031 66.859375Q542.7031 66.96875 542.7031 67.1875L537.28125 67.1875Q537.3594 68.375 537.9531 69.015625Q538.5625 69.65625 539.4844 69.65625Q540.15625 69.65625 540.625 69.296875Q541.1094 68.9375 541.3906 68.15625ZM537.3594 66.171875L541.40625 66.171875Q541.3281 65.25 540.9375 64.796875Q540.3594 64.09375 539.4219 64.09375Q538.5625 64.09375 537.9844 64.65625Q537.4219 65.21875 537.3594 66.171875ZM544.4219 73.28125L544.4219 63.234375L545.5469 63.234375L545.5469 64.1875Q545.9375 63.625 546.4375 63.359375Q546.9375 63.078125 547.65625 63.078125Q548.5781 63.078125 549.28125 63.5625Q550.0 64.03125 550.3594 64.90625Q550.71875 65.78125 550.71875 66.8125Q550.71875 67.921875 550.3125 68.828125Q549.9219 69.71875 549.15625 70.203125Q548.40625 70.671875 547.5625 70.671875Q546.9531 70.671875 546.4531 70.40625Q545.96875 70.140625 545.65625 69.75L545.65625 73.28125L544.4219 73.28125ZM545.53125 66.90625Q545.53125 68.3125 546.09375 68.984375Q546.6719 69.65625 547.4844 69.65625Q548.2969 69.65625 548.875 68.96875Q549.46875 68.265625 549.46875 66.8125Q549.46875 65.421875 548.8906 64.734375Q548.3281 64.046875 547.53125 64.046875Q546.75 64.046875 546.1406 64.78125Q545.53125 65.515625 545.53125 66.90625ZM557.3906 68.15625L558.6719 68.3125Q558.3594 69.4375 557.5469 70.0625Q556.7344 70.671875 555.46875 70.671875Q553.875 70.671875 552.9375 69.6875Q552.0156 68.703125 552.0156 66.9375Q552.0156 65.09375 552.9531 64.09375Q553.90625 63.078125 555.40625 63.078125Q556.8594 63.078125 557.78125 64.078125Q558.7031 65.0625 558.7031 66.859375Q558.7031 66.96875 558.7031 67.1875L553.28125 67.1875Q553.3594 68.375 553.9531 69.015625Q554.5625 69.65625 555.4844 69.65625Q556.15625 69.65625 556.625 69.296875Q557.1094 68.9375 557.3906 68.15625ZM553.3594 66.171875L557.40625 66.171875Q557.3281 65.25 556.9375 64.796875Q556.3594 64.09375 555.4219 64.09375Q554.5625 64.09375 553.9844 64.65625Q553.4219 65.21875 553.3594 66.171875ZM560.4375 63.234375L561.65625 63.234375L561.65625 66.265625L565.0781 66.265625L565.0781 63.234375L566.2969 63.234375L566.2969 70.5L565.0781 70.5L565.0781 67.28125L561.65625 67.28125L561.65625 70.5L560.4375 70.5L560.4375 63.234375ZM573.15625 69.609375Q572.4844 70.1875 571.84375 70.4375Q571.21875 70.671875 570.4844 70.671875Q569.2969 70.671875 568.6406 70.09375Q568.0 69.5 568.0 68.578125Q568.0 68.046875 568.2344 67.609375Q568.4844 67.171875 568.875 66.90625Q569.28125 66.640625 569.7656 66.5Q570.125 66.40625 570.8594 66.3125Q572.3594 66.140625 573.0625 65.890625Q573.0625 65.640625 573.0625 65.578125Q573.0625 64.8125 572.71875 64.515625Q572.25 64.09375 571.3125 64.09375Q570.4531 64.09375 570.03125 64.40625Q569.625 64.703125 569.4219 65.46875L568.21875 65.3125Q568.375 64.53125 568.75 64.0625Q569.1406 63.59375 569.84375 63.34375Q570.5625 63.078125 571.5 63.078125Q572.4219 63.078125 573.0 63.296875Q573.5781 63.515625 573.84375 63.84375Q574.125 64.171875 574.2344 64.6875Q574.2969 65.0 574.2969 65.8125L574.2969 67.453125Q574.2969 69.171875 574.375 69.625Q574.4531 70.078125 574.6875 70.5L573.40625 70.5Q573.21875 70.109375 573.15625 69.609375ZM573.0625 66.859375Q572.3906 67.125 571.0469 67.328125Q570.2969 67.4375 569.96875 67.578125Q569.65625 67.703125 569.4844 67.96875Q569.3125 68.234375 569.3125 68.546875Q569.3125 69.046875 569.6875 69.375Q570.0625 69.703125 570.78125 69.703125Q571.5 69.703125 572.0469 69.390625Q572.59375 69.078125 572.8594 68.53125Q573.0625 68.125 573.0625 67.3125L573.0625 66.859375ZM580.4375 63.234375L583.2656 63.234375Q584.3125 63.234375 584.8125 63.421875Q585.3281 63.59375 585.6875 64.0625Q586.0625 64.515625 586.0625 65.171875Q586.0625 65.6875 585.84375 66.078125Q585.625 66.453125 585.2031 66.71875Q585.71875 66.890625 586.0469 67.359375Q586.3906 67.828125 586.3906 68.46875Q586.3281 69.5 585.65625 70.0Q584.9844 70.5 583.7031 70.5L580.4375 70.5L580.4375 63.234375ZM581.65625 66.296875L582.96875 66.296875Q583.7656 66.296875 584.0469 66.21875Q584.34375 66.125 584.5781 65.875Q584.8125 65.625 584.8125 65.28125Q584.8125 64.703125 584.40625 64.484375Q584.0 64.265625 583.0156 64.265625L581.65625 64.265625L581.65625 66.296875ZM581.65625 69.484375L583.28125 69.484375Q584.3281 69.484375 584.71875 69.25Q585.1094 69.0 585.125 68.40625Q585.125 68.0625 584.8906 67.765625Q584.6719 67.46875 584.3125 67.390625Q583.9531 67.3125 583.15625 67.3125L581.65625 67.3125L581.65625 69.484375ZM591.4531 63.234375L593.375 63.234375L595.28125 69.046875L597.3906 63.234375L599.1719 63.234375L599.1719 70.5L597.9375 70.5L597.9375 64.65625L595.7969 70.5L594.6875 70.5L592.65625 64.375L592.65625 70.5L591.4531 70.5L591.4531 63.234375ZM601.4219 63.234375L602.65625 63.234375L602.65625 68.78125L606.0625 63.234375L607.3906 63.234375L607.3906 70.5L606.15625 70.5L606.15625 65.0L602.75 70.5L601.4219 70.5L601.4219 63.234375ZM609.4375 63.234375L610.65625 63.234375L610.65625 66.265625L614.0781 66.265625L614.0781 63.234375L615.2969 63.234375L615.2969 70.5L614.0781 70.5L614.0781 67.28125L610.65625 67.28125L610.65625 70.5L609.4375 70.5L609.4375 63.234375ZM617.375 73.296875L617.2344 72.140625Q617.6406 72.25 617.9375 72.25Q618.34375 72.25 618.59375 72.109375Q618.84375 71.984375 619.0 71.734375Q619.1094 71.546875 619.375 70.8125Q619.40625 70.71875 619.4844 70.515625L616.71875 63.234375L618.0469 63.234375L619.5625 67.4375Q619.8594 68.25 620.09375 69.125Q620.2969 68.28125 620.59375 67.46875L622.1406 63.234375L623.375 63.234375L620.6094 70.625Q620.1719 71.8125 619.9219 72.265625Q619.59375 72.875 619.1719 73.15625Q618.75 73.453125 618.15625 73.453125Q617.8125 73.453125 617.375 73.296875ZM623.7656 63.234375L629.65625 63.234375L629.65625 64.265625L627.3281 64.265625L627.3281 70.5L626.09375 70.5L626.09375 64.265625L623.7656 64.265625L623.7656 63.234375ZM631.4219 63.234375L632.65625 63.234375L632.65625 68.78125L636.0625 63.234375L637.3906 63.234375L637.3906 70.5L636.15625 70.5L636.15625 65.0L632.75 70.5L631.4219 70.5L631.4219 63.234375ZM640.2344 73.453125L639.34375 73.453125Q641.3906 70.171875 641.3906 66.875Q641.3906 65.59375 641.09375 64.328125Q640.8594 63.296875 640.4531 62.359375Q640.1875 61.75 639.34375 60.3125L640.2344 60.3125Q641.5156 62.015625 642.125 63.75Q642.65625 65.25 642.65625 66.875Q642.65625 68.71875 641.9375 70.4375Q641.2344 72.15625 640.2344 73.453125Z" fill-rule="nonzero"/><path fill="#000000" d="M31.265625 41.5L31.265625 24.3125L34.734375 24.3125L34.734375 31.078125L41.53125 31.078125L41.53125 24.3125L45.0 24.3125L45.0 41.5L41.53125 41.5L41.53125 33.984375L34.734375 33.984375L34.734375 41.5L31.265625 41.5ZM50.6875 32.84375L47.703125 32.3125Q48.203125 30.5 49.421875 29.640625Q50.65625 28.765625 53.09375 28.765625Q55.296875 28.765625 56.375 29.296875Q57.453125 29.8125 57.890625 30.625Q58.328125 31.421875 58.328125 33.5625L58.296875 37.40625Q58.296875 39.046875 58.453125 39.828125Q58.609375 40.609375 59.046875 41.5L55.78125 41.5Q55.65625 41.171875 55.46875 40.53125Q55.390625 40.234375 55.34375 40.140625Q54.5 40.953125 53.53125 41.375Q52.578125 41.78125 51.5 41.78125Q49.578125 41.78125 48.46875 40.734375Q47.359375 39.6875 47.359375 38.09375Q47.359375 37.046875 47.859375 36.21875Q48.359375 35.390625 49.265625 34.953125Q50.1875 34.515625 51.890625 34.1875Q54.203125 33.75 55.09375 33.375L55.09375 33.046875Q55.09375 32.09375 54.625 31.703125Q54.15625 31.296875 52.859375 31.296875Q51.96875 31.296875 51.46875 31.640625Q50.984375 31.984375 50.6875 32.84375ZM55.09375 35.515625Q54.453125 35.734375 53.078125 36.03125Q51.71875 36.3125 51.296875 36.59375Q50.65625 37.0625 50.65625 37.765625Q50.65625 38.453125 51.171875 38.953125Q51.6875 39.453125 52.484375 39.453125Q53.375 39.453125 54.171875 38.875Q54.78125 38.421875 54.96875 37.78125Q55.09375 37.359375 55.09375 36.171875L55.09375 35.515625ZM72.078125 32.734375L68.828125 33.3125Q68.671875 32.34375 68.078125 31.859375Q67.5 31.359375 66.578125 31.359375Q65.34375 31.359375 64.609375 32.21875Q63.890625 33.0625 63.890625 35.046875Q63.890625 37.265625 64.625 38.1875Q65.375 39.09375 66.625 39.09375Q67.5625 39.09375 68.15625 38.5625Q68.765625 38.03125 69.0 36.734375L72.234375 37.28125Q71.734375 39.5 70.296875 40.640625Q68.875 41.78125 66.46875 41.78125Q63.75 41.78125 62.125 40.0625Q60.5 38.328125 60.5 35.28125Q60.5 32.203125 62.125 30.484375Q63.75 28.765625 66.53125 28.765625Q68.8125 28.765625 70.140625 29.75Q71.484375 30.734375 72.078125 32.734375ZM81.4375 37.53125L84.71875 38.09375Q84.078125 39.890625 82.703125 40.84375Q81.34375 41.78125 79.296875 41.78125Q76.046875 41.78125 74.5 39.65625Q73.265625 37.953125 73.265625 35.375Q73.265625 32.28125 74.875 30.53125Q76.5 28.765625 78.96875 28.765625Q81.75 28.765625 83.34375 30.609375Q84.953125 32.4375 84.890625 36.21875L76.640625 36.21875Q76.671875 37.6875 77.4375 38.5Q78.203125 39.3125 79.328125 39.3125Q80.109375 39.3125 80.625 38.890625Q81.15625 38.46875 81.4375 37.53125ZM81.625 34.203125Q81.578125 32.78125 80.875 32.046875Q80.171875 31.296875 79.171875 31.296875Q78.09375 31.296875 77.390625 32.078125Q76.6875 32.859375 76.703125 34.203125L81.625 34.203125ZM88.109375 29.046875L99.140625 29.046875L99.140625 41.5L95.859375 41.5L95.859375 31.71875L91.375 31.71875L91.375 37.3125Q91.375 39.453125 90.875 40.3125Q90.390625 41.171875 89.78125 41.453125Q89.1875 41.71875 87.875 41.71875Q87.078125 41.71875 85.796875 41.5L85.796875 39.078125Q85.90625 39.078125 86.34375 39.09375Q86.859375 39.125 87.140625 39.125Q87.8125 39.125 87.953125 38.6875Q88.109375 38.25 88.109375 36.25L88.109375 29.046875ZM109.4375 37.53125L112.71875 38.09375Q112.078125 39.890625 110.703125 40.84375Q109.34375 41.78125 107.296875 41.78125Q104.046875 41.78125 102.5 39.65625Q101.265625 37.953125 101.265625 35.375Q101.265625 32.28125 102.875 30.53125Q104.5 28.765625 106.96875 28.765625Q109.75 28.765625 111.34375 30.609375Q112.953125 32.4375 112.890625 36.21875L104.640625 36.21875Q104.671875 37.6875 105.4375 38.5Q106.203125 39.3125 107.328125 39.3125Q108.109375 39.3125 108.625 38.890625Q109.15625 38.46875 109.4375 37.53125ZM109.625 34.203125Q109.578125 32.78125 108.875 32.046875Q108.171875 31.296875 107.171875 31.296875Q106.09375 31.296875 105.390625 32.078125Q104.6875 32.859375 104.703125 34.203125L109.625 34.203125ZM115.09375 29.046875L118.390625 29.046875L118.390625 33.609375L123.09375 33.609375L123.09375 29.046875L126.40625 29.046875L126.40625 41.5L123.09375 41.5L123.09375 36.265625L118.390625 36.265625L118.390625 41.5L115.09375 41.5L115.09375 29.046875ZM130.14062 29.046875L133.3125 29.046875L133.3125 36.875L138.375 29.046875L141.60938 29.046875L141.60938 41.5L138.4375 41.5L138.4375 33.546875L133.3125 41.5L130.14062 41.5L130.14062 29.046875ZM152.4375 37.53125L155.71875 38.09375Q155.07812 39.890625 153.70312 40.84375Q152.34375 41.78125 150.29688 41.78125Q147.04688 41.78125 145.5 39.65625Q144.26562 37.953125 144.26562 35.375Q144.26562 32.28125 145.875 30.53125Q147.5 28.765625 149.96875 28.765625Q152.75 28.765625 154.34375 30.609375Q155.95312 32.4375 155.89062 36.21875L147.64062 36.21875Q147.67188 37.6875 148.4375 38.5Q149.20312 39.3125 150.32812 39.3125Q151.10938 39.3125 151.625 38.890625Q152.15625 38.46875 152.4375 37.53125ZM152.625 34.203125Q152.57812 32.78125 151.875 32.046875Q151.17188 31.296875 150.17188 31.296875Q149.09375 31.296875 148.39062 32.078125Q147.6875 32.859375 147.70312 34.203125L152.625 34.203125ZM176.07812 32.734375L172.82812 33.3125Q172.67188 32.34375 172.07812 31.859375Q171.5 31.359375 170.57812 31.359375Q169.34375 31.359375 168.60938 32.21875Q167.89062 33.0625 167.89062 35.046875Q167.89062 37.265625 168.625 38.1875Q169.375 39.09375 170.625 39.09375Q171.5625 39.09375 172.15625 38.5625Q172.76562 38.03125 173.0 36.734375L176.23438 37.28125Q175.73438 39.5 174.29688 40.640625Q172.875 41.78125 170.46875 41.78125Q167.75 41.78125 166.125 40.0625Q164.5 38.328125 164.5 35.28125Q164.5 32.203125 166.125 30.484375Q167.75 28.765625 170.53125 28.765625Q172.8125 28.765625 174.14062 29.75Q175.48438 30.734375 176.07812 32.734375ZM178.09375 29.046875L189.14062 29.046875L189.14062 41.5L185.85938 41.5L185.85938 31.71875L181.39062 31.71875L181.39062 41.5L178.09375 41.5L178.09375 29.046875ZM193.125 29.046875L196.20312 29.046875L196.20312 30.875Q196.79688 29.9375 197.8125 29.359375Q198.84375 28.765625 200.07812 28.765625Q202.25 28.765625 203.75 30.46875Q205.26562 32.171875 205.26562 35.203125Q205.26562 38.328125 203.73438 40.0625Q202.21875 41.78125 200.0625 41.78125Q199.03125 41.78125 198.1875 41.375Q197.34375 40.953125 196.42188 39.96875L196.42188 46.234375L193.125 46.234375L193.125 29.046875ZM196.39062 35.0625Q196.39062 37.15625 197.21875 38.171875Q198.04688 39.171875 199.25 39.171875Q200.39062 39.171875 201.15625 38.25Q201.92188 37.328125 201.92188 35.234375Q201.92188 33.265625 201.125 32.328125Q200.34375 31.375 199.1875 31.375Q197.98438 31.375 197.1875 32.3125Q196.39062 33.234375 196.39062 35.0625ZM218.89062 29.046875L218.89062 41.5L215.625 41.5L215.625 36.328125L215.3125 36.328125Q214.25 36.328125 213.75 36.609375Q213.25 36.875 212.64062 37.765625L212.4375 38.015625L210.28125 41.5L206.4375 41.5L208.79688 37.890625Q209.8125 36.34375 210.625 36.109375Q209.25 36.03125 208.375 35.0625Q207.51562 34.09375 207.51562 32.59375Q207.51562 31.390625 208.07812 30.53125Q208.65625 29.671875 209.59375 29.359375Q210.54688 29.046875 212.40625 29.046875L218.89062 29.046875ZM215.625 31.171875L213.26562 31.171875Q211.96875 31.171875 211.4375 31.546875Q210.90625 31.90625 210.90625 32.765625Q210.90625 33.625 211.5 34.0Q212.10938 34.375 213.46875 34.375L215.625 34.375L215.625 31.171875ZM222.3125 29.046875L226.39062 29.046875L229.48438 37.71875L232.60938 29.046875L236.67188 29.046875L236.67188 41.5L233.875 41.5L233.875 33.3125L230.84375 41.5L228.03125 41.5L225.125 33.3125L225.125 41.5L222.3125 41.5L222.3125 29.046875ZM240.46875 35.09375Q240.46875 33.453125 241.26562 31.921875Q242.07812 30.390625 243.5625 29.578125Q245.04688 28.765625 246.875 28.765625Q249.70312 28.765625 251.5 30.609375Q253.3125 32.4375 253.3125 35.234375Q253.3125 38.0625 251.48438 39.921875Q249.65625 41.78125 246.89062 41.78125Q245.1875 41.78125 243.625 41.015625Q242.07812 40.234375 241.26562 38.75Q240.46875 37.25 240.46875 35.09375ZM243.84375 35.28125Q243.84375 37.125 244.71875 38.109375Q245.59375 39.09375 246.89062 39.09375Q248.17188 39.09375 249.04688 38.109375Q249.92188 37.125 249.92188 35.25Q249.92188 33.421875 249.04688 32.4375Q248.17188 31.453125 246.89062 31.453125Q245.59375 31.453125 244.71875 32.4375Q243.84375 33.421875 243.84375 35.28125ZM263.26562 29.046875L270.46875 29.046875Q272.6875 29.046875 273.78125 29.859375Q274.89062 30.671875 274.89062 32.296875Q274.89062 33.34375 274.28125 34.125Q273.67188 34.890625 272.76562 35.140625Q274.04688 35.46875 274.67188 36.34375Q275.3125 37.203125 275.3125 38.234375Q275.3125 39.6875 274.25 40.59375Q273.1875 41.5 271.09375 41.5L263.26562 41.5L263.26562 29.046875ZM266.57812 34.21875L268.70312 34.21875Q270.23438 34.21875 270.92188 33.84375Q271.60938 33.453125 271.60938 32.609375Q271.60938 31.828125 270.96875 31.5Q270.32812 31.15625 268.70312 31.15625L266.57812 31.15625L266.57812 34.21875ZM266.57812 39.390625L269.17188 39.390625Q270.57812 39.390625 271.21875 39.046875Q271.875 38.703125 271.875 37.828125Q271.875 36.921875 271.125 36.578125Q270.39062 36.21875 268.26562 36.21875L266.57812 36.21875L266.57812 39.390625ZM278.125 29.046875L281.20312 29.046875L281.20312 30.875Q281.79688 29.9375 282.8125 29.359375Q283.84375 28.765625 285.07812 28.765625Q287.25 28.765625 288.75 30.46875Q290.26562 32.171875 290.26562 35.203125Q290.26562 38.328125 288.73438 40.0625Q287.21875 41.78125 285.0625 41.78125Q284.03125 41.78125 283.1875 41.375Q282.34375 40.953125 281.42188 39.96875L281.42188 46.234375L278.125 46.234375L278.125 29.046875ZM281.39062 35.0625Q281.39062 37.15625 282.21875 38.171875Q283.04688 39.171875 284.25 39.171875Q285.39062 39.171875 286.15625 38.25Q286.92188 37.328125 286.92188 35.234375Q286.92188 33.265625 286.125 32.328125Q285.34375 31.375 284.1875 31.375Q282.98438 31.375 282.1875 32.3125Q281.39062 33.234375 281.39062 35.0625ZM300.4375 37.53125L303.71875 38.09375Q303.07812 39.890625 301.70312 40.84375Q300.34375 41.78125 298.29688 41.78125Q295.04688 41.78125 293.5 39.65625Q292.26562 37.953125 292.26562 35.375Q292.26562 32.28125 293.875 30.53125Q295.5 28.765625 297.96875 28.765625Q300.75 28.765625 302.34375 30.609375Q303.95312 32.4375 303.89062 36.21875L295.64062 36.21875Q295.67188 37.6875 296.4375 38.5Q297.20312 39.3125 298.32812 39.3125Q299.10938 39.3125 299.625 38.890625Q300.15625 38.46875 300.4375 37.53125ZM300.625 34.203125Q300.57812 32.78125 299.875 32.046875Q299.17188 31.296875 298.17188 31.296875Q297.09375 31.296875 296.39062 32.078125Q295.6875 32.859375 295.70312 34.203125L300.625 34.203125ZM306.3125 29.046875L310.39062 29.046875L313.48438 37.71875L316.60938 29.046875L320.67188 29.046875L320.67188 41.5L317.875 41.5L317.875 33.3125L314.84375 41.5L312.03125 41.5L309.125 33.3125L309.125 41.5L306.3125 41.5L306.3125 29.046875ZM332.4375 37.53125L335.71875 38.09375Q335.07812 39.890625 333.70312 40.84375Q332.34375 41.78125 330.29688 41.78125Q327.04688 41.78125 325.5 39.65625Q324.26562 37.953125 324.26562 35.375Q324.26562 32.28125 325.875 30.53125Q327.5 28.765625 329.96875 28.765625Q332.75 28.765625 334.34375 30.609375Q335.95312 32.4375 335.89062 36.21875L327.64062 36.21875Q327.67188 37.6875 328.4375 38.5Q329.20312 39.3125 330.32812 39.3125Q331.10938 39.3125 331.625 38.890625Q332.15625 38.46875 332.4375 37.53125ZM332.625 34.203125Q332.57812 32.78125 331.875 32.046875Q331.17188 31.296875 330.17188 31.296875Q329.09375 31.296875 328.39062 32.078125Q327.6875 32.859375 327.70312 34.203125L332.625 34.203125ZM338.26562 29.046875L345.46875 29.046875Q347.6875 29.046875 348.78125 29.859375Q349.89062 30.671875 349.89062 32.296875Q349.89062 33.34375 349.28125 34.125Q348.67188 34.890625 347.76562 35.140625Q349.04688 35.46875 349.67188 36.34375Q350.3125 37.203125 350.3125 38.234375Q350.3125 39.6875 349.25 40.59375Q348.1875 41.5 346.09375 41.5L338.26562 41.5L338.26562 29.046875ZM341.57812 34.21875L343.70312 34.21875Q345.23438 34.21875 345.92188 33.84375Q346.60938 33.453125 346.60938 32.609375Q346.60938 31.828125 345.96875 31.5Q345.32812 31.15625 343.70312 31.15625L341.57812 31.15625L341.57812 34.21875ZM341.57812 39.390625L344.17188 39.390625Q345.57812 39.390625 346.21875 39.046875Q346.875 38.703125 346.875 37.828125Q346.875 36.921875 346.125 36.578125Q345.39062 36.21875 343.26562 36.21875L341.57812 36.21875L341.57812 39.390625ZM355.6875 32.84375L352.70312 32.3125Q353.20312 30.5 354.42188 29.640625Q355.65625 28.765625 358.09375 28.765625Q360.29688 28.765625 361.375 29.296875Q362.45312 29.8125 362.89062 30.625Q363.32812 31.421875 363.32812 33.5625L363.29688 37.40625Q363.29688 39.046875 363.45312 39.828125Q363.60938 40.609375 364.04688 41.5L360.78125 41.5Q360.65625 41.171875 360.46875 40.53125Q360.39062 40.234375 360.34375 40.140625Q359.5 40.953125 358.53125 41.375Q357.57812 41.78125 356.5 41.78125Q354.57812 41.78125 353.46875 40.734375Q352.35938 39.6875 352.35938 38.09375Q352.35938 37.046875 352.85938 36.21875Q353.35938 35.390625 354.26562 34.953125Q355.1875 34.515625 356.89062 34.1875Q359.20312 33.75 360.09375 33.375L360.09375 33.046875Q360.09375 32.09375 359.625 31.703125Q359.15625 31.296875 357.85938 31.296875Q356.96875 31.296875 356.46875 31.640625Q355.98438 31.984375 355.6875 32.84375ZM360.09375 35.515625Q359.45312 35.734375 358.07812 36.03125Q356.71875 36.3125 356.29688 36.59375Q355.65625 37.0625 355.65625 37.765625Q355.65625 38.453125 356.17188 38.953125Q356.6875 39.453125 357.48438 39.453125Q358.375 39.453125 359.17188 38.875Q359.78125 38.421875 359.96875 37.78125Q360.09375 37.359375 360.09375 36.171875L360.09375 35.515625ZM383.51562 41.5L374.09375 41.5L374.09375 44.78125L371.42188 44.78125L371.42188 38.796875L372.76562 38.796875Q373.60938 37.859375 374.15625 35.875Q374.71875 33.875 374.8125 29.046875L384.85938 29.046875L384.85938 38.796875L386.20312 38.796875L386.20312 44.78125L383.51562 44.78125L383.51562 41.5ZM381.60938 38.796875L381.60938 31.765625L377.625 31.765625Q377.4375 36.921875 375.98438 38.796875L381.60938 38.796875ZM388.14062 29.046875L391.3125 29.046875L391.3125 36.875L396.375 29.046875L399.60938 29.046875L399.60938 41.5L396.4375 41.5L396.4375 33.546875L391.3125 41.5L388.14062 41.5L388.14062 29.046875ZM414.07812 32.734375L410.82812 33.3125Q410.67188 32.34375 410.07812 31.859375Q409.5 31.359375 408.57812 31.359375Q407.34375 31.359375 406.60938 32.21875Q405.89062 33.0625 405.89062 35.046875Q405.89062 37.265625 406.625 38.1875Q407.375 39.09375 408.625 39.09375Q409.5625 39.09375 410.15625 38.5625Q410.76562 38.03125 411.0 36.734375L414.23438 37.28125Q413.73438 39.5 412.29688 40.640625Q410.875 41.78125 408.46875 41.78125Q405.75 41.78125 404.125 40.0625Q402.5 38.328125 402.5 35.28125Q402.5 32.203125 404.125 30.484375Q405.75 28.765625 408.53125 28.765625Q410.8125 28.765625 412.14062 29.75Q413.48438 30.734375 414.07812 32.734375ZM414.75 29.046875L426.01562 29.046875L426.01562 31.71875L422.03125 31.71875L422.03125 41.5L418.73438 41.5L418.73438 31.71875L414.75 31.71875L414.75 29.046875ZM429.6875 32.84375L426.70312 32.3125Q427.20312 30.5 428.42188 29.640625Q429.65625 28.765625 432.09375 28.765625Q434.29688 28.765625 435.375 29.296875Q436.45312 29.8125 436.89062 30.625Q437.32812 31.421875 437.32812 33.5625L437.29688 37.40625Q437.29688 39.046875 437.45312 39.828125Q437.60938 40.609375 438.04688 41.5L434.78125 41.5Q434.65625 41.171875 434.46875 40.53125Q434.39062 40.234375 434.34375 40.140625Q433.5 40.953125 432.53125 41.375Q431.57812 41.78125 430.5 41.78125Q428.57812 41.78125 427.46875 40.734375Q426.35938 39.6875 426.35938 38.09375Q426.35938 37.046875 426.85938 36.21875Q427.35938 35.390625 428.26562 34.953125Q429.1875 34.515625 430.89062 34.1875Q433.20312 33.75 434.09375 33.375L434.09375 33.046875Q434.09375 32.09375 433.625 31.703125Q433.15625 31.296875 431.85938 31.296875Q430.96875 31.296875 430.46875 31.640625Q429.98438 31.984375 429.6875 32.84375ZM434.09375 35.515625Q433.45312 35.734375 432.07812 36.03125Q430.71875 36.3125 430.29688 36.59375Q429.65625 37.0625 429.65625 37.765625Q429.65625 38.453125 430.17188 38.953125Q430.6875 39.453125 431.48438 39.453125Q432.375 39.453125 433.17188 38.875Q433.78125 38.421875 433.96875 37.78125Q434.09375 37.359375 434.09375 36.171875L434.09375 35.515625ZM440.09375 29.046875L443.39062 29.046875L443.39062 33.609375L448.09375 33.609375L448.09375 29.046875L451.40625 29.046875L451.40625 41.5L448.09375 41.5L448.09375 36.265625L443.39062 36.265625L443.39062 41.5L440.09375 41.5L440.09375 29.046875ZM455.10938 29.046875L458.40625 29.046875L458.40625 38.84375L463.09375 38.84375L463.09375 29.046875L466.39062 29.046875L466.39062 38.84375L467.6875 38.84375L467.6875 44.78125L465.03125 44.78125L465.03125 41.5L455.10938 41.5L455.10938 29.046875ZM470.14062 29.046875L473.3125 29.046875L473.3125 36.875L478.375 29.046875L481.60938 29.046875L481.60938 41.5L478.4375 41.5L478.4375 33.546875L473.3125 41.5L470.14062 41.5L470.14062 29.046875ZM495.89062 29.046875L495.89062 41.5L492.625 41.5L492.625 36.328125L492.3125 36.328125Q491.25 36.328125 490.75 36.609375Q490.25 36.875 489.64062 37.765625L489.4375 38.015625L487.28125 41.5L483.4375 41.5L485.79688 37.890625Q486.8125 36.34375 487.625 36.109375Q486.25 36.03125 485.375 35.0625Q484.51562 34.09375 484.51562 32.59375Q484.51562 31.390625 485.07812 30.53125Q485.65625 29.671875 486.59375 29.359375Q487.54688 29.046875 489.40625 29.046875L495.89062 29.046875ZM492.625 31.171875L490.26562 31.171875Q488.96875 31.171875 488.4375 31.546875Q487.90625 31.90625 487.90625 32.765625Q487.90625 33.625 488.5 34.0Q489.10938 34.375 490.46875 34.375L492.625 34.375L492.625 31.171875ZM505.46875 35.09375Q505.46875 33.453125 506.26562 31.921875Q507.07812 30.390625 508.5625 29.578125Q510.04688 28.765625 511.875 28.765625Q514.7031 28.765625 516.5 30.609375Q518.3125 32.4375 518.3125 35.234375Q518.3125 38.0625 516.4844 39.921875Q514.65625 41.78125 511.89062 41.78125Q510.1875 41.78125 508.625 41.015625Q507.07812 40.234375 506.26562 38.75Q505.46875 37.25 505.46875 35.09375ZM508.84375 35.28125Q508.84375 37.125 509.71875 38.109375Q510.59375 39.09375 511.89062 39.09375Q513.1719 39.09375 514.0469 38.109375Q514.9219 37.125 514.9219 35.25Q514.9219 33.421875 514.0469 32.4375Q513.1719 31.453125 511.89062 31.453125Q510.59375 31.453125 509.71875 32.4375Q508.84375 33.421875 508.84375 35.28125ZM519.75 29.046875L531.0156 29.046875L531.0156 31.71875L527.03125 31.71875L527.03125 41.5L523.7344 41.5L523.7344 31.71875L519.75 31.71875L519.75 29.046875ZM548.5625 23.921875L550.7969 23.921875Q550.7031 25.40625 550.0156 26.171875Q549.34375 26.9375 546.7031 26.9375Q546.3906 26.9375 546.0625 26.9375L545.6406 26.9375Q544.0781 26.9375 543.09375 27.28125Q542.1094 27.625 541.4844 28.625Q540.8594 29.609375 540.8281 31.828125Q541.5625 30.453125 542.7031 29.78125Q543.8594 29.09375 545.4531 29.09375Q547.90625 29.09375 549.6094 31.0Q551.3125 32.90625 551.3125 35.421875Q551.3125 38.03125 549.5156 39.90625Q547.7344 41.78125 544.84375 41.78125Q542.875 41.78125 541.375 40.828125Q539.875 39.875 539.21875 38.234375Q538.5781 36.59375 538.5781 32.78125Q538.5781 28.296875 540.21875 26.34375Q541.875 24.390625 545.96875 24.390625L547.6406 24.390625Q548.3281 24.390625 548.5625 23.921875ZM541.9375 35.375Q541.9375 37.0625 542.78125 38.0625Q543.625 39.046875 544.8594 39.046875Q546.1875 39.046875 547.03125 38.03125Q547.8906 37.0 547.8906 35.375Q547.8906 33.734375 547.0156 32.71875Q546.15625 31.703125 544.8906 31.703125Q543.6719 31.703125 542.7969 32.703125Q541.9375 33.6875 541.9375 35.375ZM553.46875 35.09375Q553.46875 33.453125 554.2656 31.921875Q555.0781 30.390625 556.5625 29.578125Q558.0469 28.765625 559.875 28.765625Q562.7031 28.765625 564.5 30.609375Q566.3125 32.4375 566.3125 35.234375Q566.3125 38.0625 564.4844 39.921875Q562.65625 41.78125 559.8906 41.78125Q558.1875 41.78125 556.625 41.015625Q555.0781 40.234375 554.2656 38.75Q553.46875 37.25 553.46875 35.09375ZM556.84375 35.28125Q556.84375 37.125 557.71875 38.109375Q558.59375 39.09375 559.8906 39.09375Q561.1719 39.09375 562.0469 38.109375Q562.9219 37.125 562.9219 35.25Q562.9219 33.421875 562.0469 32.4375Q561.1719 31.453125 559.8906 31.453125Q558.59375 31.453125 557.71875 32.4375Q556.84375 33.421875 556.84375 35.28125ZM570.1094 29.046875L581.1406 29.046875L581.1406 41.5L577.8594 41.5L577.8594 31.71875L573.375 31.71875L573.375 37.3125Q573.375 39.453125 572.875 40.3125Q572.3906 41.171875 571.78125 41.453125Q571.1875 41.71875 569.875 41.71875Q569.0781 41.71875 567.7969 41.5L567.7969 39.078125Q567.90625 39.078125 568.34375 39.09375Q568.8594 39.125 569.1406 39.125Q569.8125 39.125 569.9531 38.6875Q570.1094 38.25 570.1094 36.25L570.1094 29.046875ZM584.09375 29.046875L587.3906 29.046875L587.3906 33.609375L592.09375 33.609375L592.09375 29.046875L595.40625 29.046875L595.40625 41.5L592.09375 41.5L592.09375 36.265625L587.3906 36.265625L587.3906 41.5L584.09375 41.5L584.09375 29.046875ZM599.1406 29.046875L602.3125 29.046875L602.3125 36.875L607.375 29.046875L610.6094 29.046875L610.6094 41.5L607.4375 41.5L607.4375 33.546875L602.3125 41.5L599.1406 41.5L599.1406 29.046875ZM614.1094 29.046875L617.40625 29.046875L617.40625 38.84375L622.09375 38.84375L622.09375 29.046875L625.3906 29.046875L625.3906 38.84375L626.6875 38.84375L626.6875 44.78125L624.03125 44.78125L624.03125 41.5L614.1094 41.5L614.1094 29.046875ZM631.6875 32.84375L628.7031 32.3125Q629.2031 30.5 630.4219 29.640625Q631.65625 28.765625 634.09375 28.765625Q636.2969 28.765625 637.375 29.296875Q638.4531 29.8125 638.8906 30.625Q639.3281 31.421875 639.3281 33.5625L639.2969 37.40625Q639.2969 39.046875 639.4531 39.828125Q639.6094 40.609375 640.0469 41.5L636.78125 41.5Q636.65625 41.171875 636.46875 40.53125Q636.3906 40.234375 636.34375 40.140625Q635.5 40.953125 634.53125 41.375Q633.5781 41.78125 632.5 41.78125Q630.5781 41.78125 629.46875 40.734375Q628.3594 39.6875 628.3594 38.09375Q628.3594 37.046875 628.8594 36.21875Q629.3594 35.390625 630.2656 34.953125Q631.1875 34.515625 632.8906 34.1875Q635.2031 33.75 636.09375 33.375L636.09375 33.046875Q636.09375 32.09375 635.625 31.703125Q635.15625 31.296875 633.8594 31.296875Q632.96875 31.296875 632.46875 31.640625Q631.9844 31.984375 631.6875 32.84375ZM636.09375 35.515625Q635.4531 35.734375 634.0781 36.03125Q632.71875 36.3125 632.2969 36.59375Q631.65625 37.0625 631.65625 37.765625Q631.65625 38.453125 632.1719 38.953125Q632.6875 39.453125 633.4844 39.453125Q634.375 39.453125 635.1719 38.875Q635.78125 38.421875 635.96875 37.78125Q636.09375 37.359375 636.09375 36.171875L636.09375 35.515625Z" fill-rule="nonzero"/></svg>